<svg id="Layer_1" data-name="Layer 1" xmlns="http://www.w3.org/2000/svg" viewBox="0 0 417.58 123.38"><defs><style>.cls-1{fill:#00588e;}</style></defs><title>jamk_fi_tunnus_sininen</title><path class="cls-1" d="M246.64,271.62c-.13-5.66-2.47-6.85-4.47-6.85h0c-9.62,0-16.42.79-20.89,2.45-1.22.52-2.68,1.82-2.68,5.09v.12c0,.64.1,1.26.19,1.9.63,3.78,2.8,4.42,4.09,4.46h8.55V327c0,6.28-.89,10.32-2.47,11.47a7.52,7.52,0,0,0-6.85-3.63,10.4,10.4,0,0,0-3.9.73c-4,1.62-6.07,4.86-6.07,9.35a10.62,10.62,0,0,0,.74,4c1.62,3.92,4.82,6,9.23,6,8,0,14.37-3.66,18.86-10.88a39.21,39.21,0,0,0,5.72-21V274.67C246.66,273.59,246.64,272.59,246.64,271.62Zm-8.84-38a10.74,10.74,0,0,0-3.9.73c-4,1.62-6.13,4.86-6.13,9.35a10.58,10.58,0,0,0,.73,4c1.63,3.93,4.84,6,9.3,6a9.69,9.69,0,0,0,7.11-2.79,9.57,9.57,0,0,0,2.85-7.18,9.82,9.82,0,0,0-2.88-7.2A9.68,9.68,0,0,0,237.8,233.6Zm259.53,83.22a10.23,10.23,0,0,1-8.08-3.35L469.73,292l11.71-11.87a7.63,7.63,0,0,1,2.41-1.4c.64-.26,2.42-.71,7.09-.71,1.55,0,3.4-1,3.4-5.53a12.68,12.68,0,0,0-.15-1.95c-.73-3.79-2.62-4.59-4.08-4.59H477.58l-1.32.54-21.37,21.26V241.43c0-1.05-.06-2.05-.06-3.05-.13-5.66-2.5-6.85-4.48-6.85-3.36,0-6.9.22-10.55.54-1.93.16-3.82.38-5.64.66a23.07,23.07,0,0,0-4.58,1.14c-1.27.5-2.78,1.78-2.78,5.08v.13c0,.64.11,1.25.21,1.95.73,3.64,2.58,4.47,4.08,4.52h8.54v70.64c-.38.18-1.78.63-6.24.63h-.58a4,4,0,0,0-2.9,1.53,4.38,4.38,0,0,0-.65,1c-.54-1.65-1.54-2.49-3-2.49h-7.31V289.29c0-8.05-1.35-13.83-4.13-17.66a15.38,15.38,0,0,0-6.58-5.14,20.62,20.62,0,0,0-8.13-1.72,26.4,26.4,0,0,0-6.81.77,73.92,73.92,0,0,0-16.7,6.93c-3.59-5.11-9.08-7.7-16.35-7.7a18.83,18.83,0,0,0-4.42.64,66.17,66.17,0,0,0-14,5.51,11.15,11.15,0,0,0-.33-2.67,5,5,0,0,0-1.32-2.4c-.76-.76-2-1.08-4.43-1.11h-.27c-1.82,0-4.49.18-8.13.57a52.11,52.11,0,0,0-5.28.73,24.6,24.6,0,0,0-4.32,1.2c-1.26.49-2.75,1.79-2.75,5.13a12.53,12.53,0,0,0,.15,1.9c.77,3.83,2.88,4.48,4.14,4.52h8.54v37.39c-.38.18-1.79.64-6.24.64H321a4,4,0,0,0-2.89,1.53,4.15,4.15,0,0,0-.58.82,3.09,3.09,0,0,0-3-2.35h-8.07V288.41c0-7-1.47-12.49-4.48-16.36a18.12,18.12,0,0,0-7.14-5.35,25.7,25.7,0,0,0-10.33-1.93,61.62,61.62,0,0,0-10.53.85,41.81,41.81,0,0,0-5.48,1.37,20.12,20.12,0,0,0-5.07,2.41,13.2,13.2,0,0,0-3.81,3.78,9.08,9.08,0,0,0-1.55,5.07,12,12,0,0,0,.73,4.36c1.63,3.92,4.83,6,9.27,6a9.78,9.78,0,0,0,7-2.86,10.85,10.85,0,0,0,2.14-3.05l.05-.12a11.09,11.09,0,0,0,.72-4.12,10.66,10.66,0,0,0-.11-1.62h3.57a12.33,12.33,0,0,1,5.26.91,7.42,7.42,0,0,1,3.09,3.2c.47.84,1.25,3.23,1.37,10H278.43c-6.23,0-11.53,1.64-15.74,4.88-4.92,3.74-7.42,9-7.42,15.6a17.14,17.14,0,0,0,5.5,13.33c3.81,3.55,9.06,5.35,15.59,5.35a31.31,31.31,0,0,0,16.54-4.33,8.38,8.38,0,0,0,1.85,2.67,5.23,5.23,0,0,0,2,1.14c.39.11,1,.28,7.42.28a37.53,37.53,0,0,0,9.92-1,4.32,4.32,0,0,0,2.95-2.53,3.2,3.2,0,0,0,3.18,2.58h30.05a4.18,4.18,0,0,0,2.87-1.56c1-1,1.42-2.67,1.42-5.15,0-4.66-2.13-5.35-3.4-5.35h-8.07V285.46c5.74-4.43,10.57-6.67,14.34-6.67a7.36,7.36,0,0,1,4.42,1.14,8.94,8.94,0,0,1,2.7,4.23c.54,1.49,1.19,5.2,1.19,14.41l0,17.51s-.63.74-4.32.74h-.1a3,3,0,0,0-2.17,1,7.59,7.59,0,0,0-2,5.75c0,4.66,2.13,5.35,3.4,5.35h26.91c1.29,0,4.29-.58,4.29-6,0-4-1.16-6-3.46-6H381V285.46c5.75-4.43,10.57-6.67,14.34-6.67a7.34,7.34,0,0,1,4.42,1.14,8.86,8.86,0,0,1,2.7,4.23c.54,1.49,1.19,5.2,1.19,14.41l0,17.51s-.62.74-4.32.74h-.12a3.07,3.07,0,0,0-2.2,1,7.67,7.67,0,0,0-2,5.63c0,4.52,1.85,5.47,3.41,5.47h27.14a3.56,3.56,0,0,0,3.36-2.17,3,3,0,0,0,2.91,2.17h26.5a4.21,4.21,0,0,0,2.83-1.46c1-1,1.46-2.63,1.46-5.13,0-4.76-2.17-5.47-3.46-5.47h-4.35V296.09l24.7,32.07,1.47.72H496.5a4,4,0,0,0,2.9-1.53c1-1,1.39-2.58,1.39-4.94C500.79,317.79,498.91,316.82,497.33,316.82Zm-206.16-4.53c-4.15,3.28-8.42,4.94-12.68,4.94a10.25,10.25,0,0,1-3.06-.45c-1.93-.59-4.48-1.95-4.48-7,0-1.85,1.07-3.5,3.3-5.05,1.14-.82,3.18-1.25,5.91-1.25h11Zm227.9-1.38-.11-.05a10.43,10.43,0,0,0-3.89-.73,10.89,10.89,0,0,0-4,.73c-4,1.62-6.13,4.86-6.13,9.36a9.39,9.39,0,0,0,2.91,7.06,9.49,9.49,0,0,0,3.21,2.07,10.88,10.88,0,0,0,3.93.72,10.51,10.51,0,0,0,3.92-.73,9.14,9.14,0,0,0,6-9.12,9.92,9.92,0,0,0-2.85-7.18A11.09,11.09,0,0,0,519.07,310.91Zm52.84-45h-14v-9c0-1.85,0-3.73.11-5.61.1-2.62.46-5.59,1.53-7.14a10.68,10.68,0,0,0,.68,2.94,9.33,9.33,0,0,0,9.24,6,9.56,9.56,0,0,0,7.05-2.8,9.74,9.74,0,0,0,2.91-7.17c0-4.22-1.69-7.41-5-9.44a13.3,13.3,0,0,0-4.68-1.8,38.52,38.52,0,0,0-6.67-.44,19.12,19.12,0,0,0-8.83,2.21c-7.74,4-11.65,12.12-11.61,24.26v7.31c-.38.18-1.8.64-6.29.64h-.58a3.9,3.9,0,0,0-3.34,2.19c-1,1.1-1.43,7.51-1.07,8.78s1.06,1.82,1.86,1.87,9.43,0,9.43,0v37.39c-.38.18-1.8.64-6.3.64h-.57a4,4,0,0,0-2.9,1.53c-1,1-1.39,2.62-1.39,5.06,0,4.76,2.16,5.47,3.46,5.47h33.65a4,4,0,0,0,2.9-1.53c.95-1,1.39-2.62,1.39-5.06,0-4.76-2.17-5.47-3.46-5.47h-11.5v-38h13a3.19,3.19,0,0,0,2.52-1.19c1.24-1.44,1.86-3.56,1.86-6.3C575.25,266.88,573.44,266,571.91,266Zm23.66-12.3a9.63,9.63,0,0,0,7.06-2.79,10.38,10.38,0,0,0,0-14.38,9.7,9.7,0,0,0-7.09-2.88,10.4,10.4,0,0,0-3.9.73c-4,1.62-6.06,4.86-6.06,9.35a10.58,10.58,0,0,0,.73,4C588,251.57,591.16,253.65,595.57,253.65Zm30.76,63.17H604.47v-45.2c-.13-5.66-2.5-6.85-4.54-6.85h0c-3.38,0-6.95.22-10.59.54-1.94.16-3.81.38-5.59.66a23.07,23.07,0,0,0-4.58,1.14c-1.27.5-2.78,1.78-2.78,5.08a13.67,13.67,0,0,0,.15,2.08c.77,3.83,2.88,4.48,4.14,4.52h8.54v37.42c-.44.19-1.91.61-6.26.61h-.58a4,4,0,0,0-2.9,1.53c-1,1-1.39,2.62-1.39,5.06,0,4.52,1.85,5.47,3.4,5.47h44a4,4,0,0,0,2.89-1.53c.95-1,1.4-2.62,1.4-5.06C629.74,317.77,627.89,316.82,626.33,316.82Z" transform="translate(-212.15 -231.53)"/></svg>